<svg width="212" height="116" viewBox="0 0 212 116" xmlns="http://www.w3.org/2000/svg">
  <defs>
    <linearGradient id="g9" x1="0" y1="0" x2="1" y2="1">
      <stop offset="0%" stop-color="#35e6ff"/>
      <stop offset="100%" stop-color="#39ff8a"/>
    </linearGradient>
    <linearGradient id="g11" x1="0" y1="0" x2="1" y2="1">
      <stop offset="0%" stop-color="#ff3df0"/>
      <stop offset="100%" stop-color="#a855f7"/>
    </linearGradient>
    <filter id="glow" x="-60%" y="-60%" width="220%" height="220%">
      <feGaussianBlur stdDeviation="3.2" result="b"/>
      <feMerge><feMergeNode in="b"/><feMergeNode in="SourceGraphic"/></feMerge>
    </filter>
  </defs>
  <rect x="8" y="8" width="196" height="100" rx="22" fill="#08090c" stroke="rgba(255,255,255,0.1)" stroke-width="2"/>
  <g filter="url(#glow)">
    <g fill="url(#g9)">
      <rect x="34" y="20" width="24" height="10" rx="3"/>
      <rect x="24" y="30" width="10" height="23" rx="3"/>
      <rect x="58" y="30" width="10" height="23" rx="3"/>
      <rect x="34" y="53" width="24" height="10" rx="3"/>
      <rect x="58" y="63" width="10" height="23" rx="3"/>
      <rect x="34" y="86" width="24" height="10" rx="3"/>
    </g>
    <g fill="url(#g11)">
      <rect x="122" y="30" width="10" height="23" rx="3"/>
      <rect x="122" y="63" width="10" height="23" rx="3"/>
      <rect x="178" y="30" width="10" height="23" rx="3"/>
      <rect x="178" y="63" width="10" height="23" rx="3"/>
    </g>
  </g>
</svg>
